{
  "accessors": [
    {
      "bufferView": 2,
      "componentType": 5126,
      "count": 65532,
      "max": [
        67.48846435546875,
        33.905128479003906,
        75.384017944335938
      ],
      "min": [
        -137.9517822265625,
        -118.07948303222656,
        -3.7164499759674072
      ],
      "type": "VEC3"
    },
    {
      "bufferView": 2,
      "byteOffset": 786384,
      "componentType": 5126,
      "count": 65532,
      "max": [
        0.9999992847442627,
        0.99993973970413208,
        0.99999988079071045
      ],
      "min": [
        -0.99995917081832886,
        -0.99999231100082397,
        -0.99995315074920654
      ],
      "type": "VEC3"
    },
    {
      "bufferView": 3,
      "componentType": 5126,
      "count": 65532,
      "max": [
        0.99999302625656128,
        0.99999505281448364,
        0.99998879432678223,
        1
      ],
      "min": [
        -0.99995064735412598,
        -0.99993103742599487,
        -0.99999982118606567,
        -1
      ],
      "type": "VEC4"
    },
    {
      "bufferView": 1,
      "componentType": 5126,
      "count": 65532,
      "max": [
        0.99698102474212646,
        0.9994959831237793
      ],
      "min": [
        0.0025549998972564936,
        0.028384000062942505
      ],
      "type": "VEC2"
    },
    {
      "bufferView": 0,
      "componentType": 5125,
      "count": 322791,
      "max": [
        65531
      ],
      "min": [
        0
      ],
      "type": "SCALAR"
    },
    {
      "bufferView": 2,
      "byteOffset": 1572768,
      "componentType": 5126,
      "count": 65532,
      "max": [
        75.427680969238281,
        42.972503662109375,
        36.536701202392578
      ],
      "min": [
        -138.56413269042969,
        -117.68479919433594,
        -3.2600638866424561
      ],
      "type": "VEC3"
    },
    {
      "bufferView": 2,
      "byteOffset": 2359152,
      "componentType": 5126,
      "count": 65532,
      "max": [
        0.99998992681503296,
        0.9997638463973999,
        0.99999988079071045
      ],
      "min": [
        -0.99985980987548828,
        -0.99994313716888428,
        -0.99988061189651489
      ],
      "type": "VEC3"
    },
    {
      "bufferView": 3,
      "byteOffset": 1048512,
      "componentType": 5126,
      "count": 65532,
      "max": [
        0.99997657537460327,
        0.99999231100082397,
        1,
        1
      ],
      "min": [
        -0.99998128414154053,
        -0.99989163875579834,
        -0.99999755620956421,
        -1
      ],
      "type": "VEC4"
    },
    {
      "bufferView": 1,
      "byteOffset": 524256,
      "componentType": 5126,
      "count": 65532,
      "max": [
        0.99841600656509399,
        0.99926000833511353
      ],
      "min": [
        0.0024890000931918621,
        0.0024910001084208488
      ],
      "type": "VEC2"
    },
    {
      "bufferView": 0,
      "byteOffset": 1291164,
      "componentType": 5125,
      "count": 314985,
      "max": [
        65531
      ],
      "min": [
        0
      ],
      "type": "SCALAR"
    },
    {
      "bufferView": 2,
      "byteOffset": 3145536,
      "componentType": 5126,
      "count": 65532,
      "max": [
        78.263641357421875,
        52.529609680175781,
        71.011062622070312
      ],
      "min": [
        -139.07977294921875,
        -105.40735626220703,
        -2.2029430866241455
      ],
      "type": "VEC3"
    },
    {
      "bufferView": 2,
      "byteOffset": 3931920,
      "componentType": 5126,
      "count": 65532,
      "max": [
        0.99999582767486572,
        0.99998146295547485,
        0.99999994039535522
      ],
      "min": [
        -0.99999970197677612,
        -0.99999380111694336,
        -0.99987834692001343
      ],
      "type": "VEC3"
    },
    {
      "bufferView": 3,
      "byteOffset": 2097024,
      "componentType": 5126,
      "count": 65532,
      "max": [
        0.99999755620956421,
        0.99999499320983887,
        0.99999940395355225,
        1
      ],
      "min": [
        -0.99998128414154053,
        -0.99989533424377441,
        -0.99999791383743286,
        -1
      ],
      "type": "VEC4"
    },
    {
      "bufferView": 1,
      "byteOffset": 1048512,
      "componentType": 5126,
      "count": 65532,
      "max": [
        0.99697798490524292,
        0.99963200092315674
      ],
      "min": [
        -2.0999999833293259e-05,
        0.0036740000359714031
      ],
      "type": "VEC2"
    },
    {
      "bufferView": 0,
      "byteOffset": 2551104,
      "componentType": 5125,
      "count": 305349,
      "max": [
        65531
      ],
      "min": [
        0
      ],
      "type": "SCALAR"
    },
    {
      "bufferView": 2,
      "byteOffset": 4718304,
      "componentType": 5126,
      "count": 65532,
      "max": [
        81.554031372070312,
        44.1778564453125,
        19.096059799194336
      ],
      "min": [
        -132.80537414550781,
        -105.26200103759766,
        -1.288148045539856
      ],
      "type": "VEC3"
    },
    {
      "bufferView": 2,
      "byteOffset": 5504688,
      "componentType": 5126,
      "count": 65532,
      "max": [
        0.99998378753662109,
        0.99999904632568359,
        0.99999958276748657
      ],
      "min": [
        -0.99963706731796265,
        -0.99999380111694336,
        -0.99985206127166748
      ],
      "type": "VEC3"
    },
    {
      "bufferView": 3,
      "byteOffset": 3145536,
      "componentType": 5126,
      "count": 65532,
      "max": [
        0.99983549118041992,
        0.99995481967926025,
        0.99999862909317017,
        1
      ],
      "min": [
        -0.99998998641967773,
        -0.99997270107269287,
        -1,
        -1
      ],
      "type": "VEC4"
    },
    {
      "bufferView": 1,
      "byteOffset": 1572768,
      "componentType": 5126,
      "count": 65532,
      "max": [
        0.99691498279571533,
        0.99964702129364014
      ],
      "min": [
        0.0026680000592023134,
        0.0038620000705122948
      ],
      "type": "VEC2"
    },
    {
      "bufferView": 0,
      "byteOffset": 3772500,
      "componentType": 5125,
      "count": 305685,
      "max": [
        65531
      ],
      "min": [
        0
      ],
      "type": "SCALAR"
    },
    {
      "bufferView": 2,
      "byteOffset": 6291072,
      "componentType": 5126,
      "count": 65532,
      "max": [
        80.357505798339844,
        58.064788818359375,
        20.059783935546875
      ],
      "min": [
        -127.67643737792969,
        -105.33341979980469,
        -0.55307000875473022
      ],
      "type": "VEC3"
    },
    {
      "bufferView": 2,
      "byteOffset": 7077456,
      "componentType": 5126,
      "count": 65532,
      "max": [
        0.99997252225875854,
        0.99999904632568359,
        0.99999994039535522
      ],
      "min": [
        -0.99999970197677612,
        -0.99971169233322144,
        -0.99987834692001343
      ],
      "type": "VEC3"
    },
    {
      "bufferView": 3,
      "byteOffset": 4194048,
      "componentType": 5126,
      "count": 65532,
      "max": [
        0.99998772144317627,
        0.99996465444564819,
        1,
        1
      ],
      "min": [
        -0.99999016523361206,
        -0.99999481439590454,
        -0.99999964237213135,
        -1
      ],
      "type": "VEC4"
    },
    {
      "bufferView": 1,
      "byteOffset": 2097024,
      "componentType": 5126,
      "count": 65532,
      "max": [
        0.99582302570343018,
        0.99970698356628418
      ],
      "min": [
        0.0023310000542551279,
        0.0041310000233352184
      ],
      "type": "VEC2"
    },
    {
      "bufferView": 0,
      "byteOffset": 4995240,
      "componentType": 5125,
      "count": 283563,
      "max": [
        65531
      ],
      "min": [
        0
      ],
      "type": "SCALAR"
    },
    {
      "bufferView": 2,
      "byteOffset": 7863840,
      "componentType": 5126,
      "count": 65532,
      "max": [
        30.603975296020508,
        13.282356262207031,
        72.027763366699219
      ],
      "min": [
        -101.64385223388672,
        -95.949317932128906,
        5.3265957832336426
      ],
      "type": "VEC3"
    },
    {
      "bufferView": 2,
      "byteOffset": 8650224,
      "componentType": 5126,
      "count": 65532,
      "max": [
        0.99997496604919434,
        0.99999475479125977,
        0.99999970197677612
      ],
      "min": [
        -0.99999159574508667,
        -0.99999809265136719,
        -0.99951285123825073
      ],
      "type": "VEC3"
    },
    {
      "bufferView": 3,
      "byteOffset": 5242560,
      "componentType": 5126,
      "count": 65532,
      "max": [
        0.99999904632568359,
        0.99999833106994629,
        1,
        1
      ],
      "min": [
        -0.99998003244400024,
        -0.99999988079071045,
        -0.99999964237213135,
        -1
      ],
      "type": "VEC4"
    },
    {
      "bufferView": 1,
      "byteOffset": 2621280,
      "componentType": 5126,
      "count": 65532,
      "max": [
        0.99365502595901489,
        0.99581301212310791
      ],
      "min": [
        0.0024099999573081732,
        0.071119002997875214
      ],
      "type": "VEC2"
    },
    {
      "bufferView": 0,
      "byteOffset": 6129492,
      "componentType": 5125,
      "count": 327351,
      "max": [
        65531
      ],
      "min": [
        0
      ],
      "type": "SCALAR"
    },
    {
      "bufferView": 2,
      "byteOffset": 9436608,
      "componentType": 5126,
      "count": 65532,
      "max": [
        30.382209777832031,
        13.282356262207031,
        71.151336669921875
      ],
      "min": [
        -91.337188720703125,
        -92.327934265136719,
        7.9355940818786621
      ],
      "type": "VEC3"
    },
    {
      "bufferView": 2,
      "byteOffset": 10222992,
      "componentType": 5126,
      "count": 65532,
      "max": [
        0.99991250038146973,
        0.99999862909317017,
        0.99999982118606567
      ],
      "min": [
        -0.99999529123306274,
        -0.99998694658279419,
        -0.99884301424026489
      ],
      "type": "VEC3"
    },
    {
      "bufferView": 3,
      "byteOffset": 6291072,
      "componentType": 5126,
      "count": 65532,
      "max": [
        0.99999135732650757,
        0.99999570846557617,
        0.99999934434890747,
        1
      ],
      "min": [
        -0.99997740983963013,
        -0.99998611211776733,
        -0.99999982118606567,
        -1
      ],
      "type": "VEC4"
    },
    {
      "bufferView": 1,
      "byteOffset": 3145536,
      "componentType": 5126,
      "count": 65532,
      "max": [
        0.99388200044631958,
        0.99976897239685059
      ],
      "min": [
        0.0022090000566095114,
        0.069430001080036163
      ],
      "type": "VEC2"
    },
    {
      "bufferView": 0,
      "byteOffset": 7438896,
      "componentType": 5125,
      "count": 312768,
      "max": [
        65531
      ],
      "min": [
        0
      ],
      "type": "SCALAR"
    },
    {
      "bufferView": 2,
      "byteOffset": 11009376,
      "componentType": 5126,
      "count": 65532,
      "max": [
        25.055820465087891,
        14.040106773376465,
        72.458984375
      ],
      "min": [
        -85.587471008300781,
        -89.321624755859375,
        11.277563095092773
      ],
      "type": "VEC3"
    },
    {
      "bufferView": 2,
      "byteOffset": 11795760,
      "componentType": 5126,
      "count": 65532,
      "max": [
        0.99999517202377319,
        0.99999850988388062,
        0.99998235702514648
      ],
      "min": [
        -0.99996823072433472,
        -1,
        -0.9943993091583252
      ],
      "type": "VEC3"
    },
    {
      "bufferView": 3,
      "byteOffset": 7339584,
      "componentType": 5126,
      "count": 65532,
      "max": [
        0.99999332427978516,
        0.99999558925628662,
        1,
        1
      ],
      "min": [
        -0.99997597932815552,
        -0.99997836351394653,
        -0.9999997615814209,
        -1
      ],
      "type": "VEC4"
    },
    {
      "bufferView": 1,
      "byteOffset": 3669792,
      "componentType": 5126,
      "count": 65532,
      "max": [
        0.99312698841094971,
        0.99973100423812866
      ],
      "min": [
        0.0030209999531507492,
        0.036614000797271729
      ],
      "type": "VEC2"
    },
    {
      "bufferView": 0,
      "byteOffset": 8689968,
      "componentType": 5125,
      "count": 315717,
      "max": [
        65531
      ],
      "min": [
        0
      ],
      "type": "SCALAR"
    },
    {
      "bufferView": 2,
      "byteOffset": 12582144,
      "componentType": 5126,
      "count": 65532,
      "max": [
        26.909076690673828,
        -4.2017321586608887,
        73.051910400390625
      ],
      "min": [
        -86.64404296875,
        -70.670646667480469,
        26.396999359130859
      ],
      "type": "VEC3"
    },
    {
      "bufferView": 2,
      "byteOffset": 13368528,
      "componentType": 5126,
      "count": 65532,
      "max": [
        0.9999927282333374,
        0.99999964237213135,
        0.99997657537460327
      ],
      "min": [
        -0.99999243021011353,
        -0.9999997615814209,
        -0.99788105487823486
      ],
      "type": "VEC3"
    },
    {
      "bufferView": 3,
      "byteOffset": 8388096,
      "componentType": 5126,
      "count": 65532,
      "max": [
        0.99998551607131958,
        0.99999517202377319,
        0.99999994039535522,
        1
      ],
      "min": [
        -0.99999052286148071,
        -0.9999997615814209,
        -0.99999988079071045,
        -1
      ],
      "type": "VEC4"
    },
    {
      "bufferView": 1,
      "byteOffset": 4194048,
      "componentType": 5126,
      "count": 65532,
      "max": [
        0.99304699897766113,
        0.99690097570419312
      ],
      "min": [
        0.044707998633384705,
        0.0033680000342428684
      ],
      "type": "VEC2"
    },
    {
      "bufferView": 0,
      "byteOffset": 9952836,
      "componentType": 5125,
      "count": 300810,
      "max": [
        65531
      ],
      "min": [
        0
      ],
      "type": "SCALAR"
    },
    {
      "bufferView": 2,
      "byteOffset": 14154912,
      "componentType": 5126,
      "count": 41375,
      "max": [
        81.430953979492188,
        50.041015625,
        74.724273681640625
      ],
      "min": [
        -137.56155395507812,
        -114.13072967529297,
        -2.8400681018829346
      ],
      "type": "VEC3"
    },
    {
      "bufferView": 2,
      "byteOffset": 14651412,
      "componentType": 5126,
      "count": 41375,
      "max": [
        0.99943673610687256,
        0.99951940774917603,
        0.99999958276748657
      ],
      "min": [
        -0.99999618530273438,
        -0.99978440999984741,
        -0.99875181913375854
      ],
      "type": "VEC3"
    },
    {
      "bufferView": 3,
      "byteOffset": 9436608,
      "componentType": 5126,
      "count": 41375,
      "max": [
        0.99973142147064209,
        0.99908077716827393,
        0.99999493360519409,
        1
      ],
      "min": [
        -0.99998265504837036,
        -0.99999958276748657,
        -0.99997663497924805,
        -1
      ],
      "type": "VEC4"
    },
    {
      "bufferView": 1,
      "byteOffset": 4718304,
      "componentType": 5126,
      "count": 41375,
      "max": [
        0.99540102481842041,
        0.99967902898788452
      ],
      "min": [
        0.00070500001311302185,
        0.0039200000464916229
      ],
      "type": "VEC2"
    },
    {
      "bufferView": 0,
      "byteOffset": 11156076,
      "componentType": 5125,
      "count": 200469,
      "max": [
        41374
      ],
      "min": [
        0
      ],
      "type": "SCALAR"
    }
  ],
  "asset": {
    "extras": {
      "author": "Icarus Aerials (https://sketchfab.com/icarusaerials)",
      "license": "CC-BY-4.0 (http://creativecommons.org/licenses/by/4.0/)",
      "source": "https://sketchfab.com/models/2e28747c95664053bcb1985efcda98fc",
      "title": "Michigan Central Station"
    },
    "generator": "Sketchfab-3.18.5",
    "version": "2.0"
  },
  "bufferViews": [
    {
      "buffer": 0,
      "byteLength": 11957952,
      "byteOffset": 0,
      "name": "floatBufferViews",
      "target": 34963
    },
    {
      "buffer": 0,
      "byteLength": 5049304,
      "byteOffset": 11957952,
      "byteStride": 8,
      "name": "floatBufferViews",
      "target": 34962
    },
    {
      "buffer": 0,
      "byteLength": 15147912,
      "byteOffset": 17007256,
      "byteStride": 12,
      "name": "floatBufferViews",
      "target": 34962
    },
    {
      "buffer": 0,
      "byteLength": 10098608,
      "byteOffset": 32155168,
      "byteStride": 16,
      "name": "floatBufferViews",
      "target": 34962
    }
  ],
  "buffers": [
    {
      "byteLength": 42253776,
      "uri": "scene.bin"
    }
  ],
  "extensionsUsed": [
    "KHR_materials_unlit"
  ],
  "images": [
    {
      "uri": "textures/material_0_baseColor.jpeg"
    }
  ],
  "materials": [
    {
      "doubleSided": true,
      "emissiveFactor": [
        0,
        0,
        0
      ],
      "extensions": {
        "KHR_materials_unlit": {}
      },
      "name": "material_0",
      "pbrMetallicRoughness": {
        "baseColorFactor": [
          1,
          1,
          1,
          1
        ],
        "baseColorTexture": {
          "index": 0,
          "texCoord": 0
        },
        "metallicFactor": 0,
        "roughnessFactor": 1
      }
    }
  ],
  "meshes": [
    {
      "primitives": [
        {
          "attributes": {
            "NORMAL": 1,
            "POSITION": 0,
            "TANGENT": 2,
            "TEXCOORD_0": 3
          },
          "indices": 4,
          "material": 0,
          "mode": 4
        }
      ]
    },
    {
      "primitives": [
        {
          "attributes": {
            "NORMAL": 6,
            "POSITION": 5,
            "TANGENT": 7,
            "TEXCOORD_0": 8
          },
          "indices": 9,
          "material": 0,
          "mode": 4
        }
      ]
    },
    {
      "primitives": [
        {
          "attributes": {
            "NORMAL": 11,
            "POSITION": 10,
            "TANGENT": 12,
            "TEXCOORD_0": 13
          },
          "indices": 14,
          "material": 0,
          "mode": 4
        }
      ]
    },
    {
      "primitives": [
        {
          "attributes": {
            "NORMAL": 16,
            "POSITION": 15,
            "TANGENT": 17,
            "TEXCOORD_0": 18
          },
          "indices": 19,
          "material": 0,
          "mode": 4
        }
      ]
    },
    {
      "primitives": [
        {
          "attributes": {
            "NORMAL": 21,
            "POSITION": 20,
            "TANGENT": 22,
            "TEXCOORD_0": 23
          },
          "indices": 24,
          "material": 0,
          "mode": 4
        }
      ]
    },
    {
      "primitives": [
        {
          "attributes": {
            "NORMAL": 26,
            "POSITION": 25,
            "TANGENT": 27,
            "TEXCOORD_0": 28
          },
          "indices": 29,
          "material": 0,
          "mode": 4
        }
      ]
    },
    {
      "primitives": [
        {
          "attributes": {
            "NORMAL": 31,
            "POSITION": 30,
            "TANGENT": 32,
            "TEXCOORD_0": 33
          },
          "indices": 34,
          "material": 0,
          "mode": 4
        }
      ]
    },
    {
      "primitives": [
        {
          "attributes": {
            "NORMAL": 36,
            "POSITION": 35,
            "TANGENT": 37,
            "TEXCOORD_0": 38
          },
          "indices": 39,
          "material": 0,
          "mode": 4
        }
      ]
    },
    {
      "primitives": [
        {
          "attributes": {
            "NORMAL": 41,
            "POSITION": 40,
            "TANGENT": 42,
            "TEXCOORD_0": 43
          },
          "indices": 44,
          "material": 0,
          "mode": 4
        }
      ]
    },
    {
      "primitives": [
        {
          "attributes": {
            "NORMAL": 46,
            "POSITION": 45,
            "TANGENT": 47,
            "TEXCOORD_0": 48
          },
          "indices": 49,
          "material": 0,
          "mode": 4
        }
      ]
    }
  ],
  "nodes": [
    {
      "children": [
        1
      ],
      "name": "RootNode (gltf orientation matrix)",
      "rotation": [
        -0.70710678118654746,
        -0,
        -0,
        0.70710678118654757
      ]
    },
    {
      "children": [
        2
      ],
      "name": "RootNode (model correction matrix)"
    },
    {
      "children": [
        3,
        4,
        5,
        6,
        7,
        8,
        9,
        10,
        11,
        12
      ],
      "name": "model.obj.cleaner"
    },
    {
      "mesh": 0,
      "name": ""
    },
    {
      "mesh": 1,
      "name": ""
    },
    {
      "mesh": 2,
      "name": ""
    },
    {
      "mesh": 3,
      "name": ""
    },
    {
      "mesh": 4,
      "name": ""
    },
    {
      "mesh": 5,
      "name": ""
    },
    {
      "mesh": 6,
      "name": ""
    },
    {
      "mesh": 7,
      "name": ""
    },
    {
      "mesh": 8,
      "name": ""
    },
    {
      "mesh": 9,
      "name": ""
    }
  ],
  "samplers": [
    {
      "magFilter": 9729,
      "minFilter": 9987,
      "wrapS": 10497,
      "wrapT": 10497
    }
  ],
  "scene": 0,
  "scenes": [
    {
      "name": "OSG_Scene",
      "nodes": [
        0
      ]
    }
  ],
  "textures": [
    {
      "sampler": 0,
      "source": 0
    }
  ]
}

