{
  "accessors": [
    {
      "bufferView": 2,
      "componentType": 5126,
      "count": 430,
      "max": [
        0.73318296670913696,
        0.60695898532867432,
        1.9764540195465088
      ],
      "min": [
        -2.0838396549224854,
        0.013792037963867188,
        -1.9764540195465088
      ],
      "type": "VEC3"
    },
    {
      "bufferView": 2,
      "byteOffset": 5160,
      "componentType": 5126,
      "count": 430,
      "max": [
        0.9954795241355896,
        0.99563825130462646,
        1
      ],
      "min": [
        -0.99037975072860718,
        -0.96150451898574829,
        -1
      ],
      "type": "VEC3"
    },
    {
      "bufferView": 3,
      "componentType": 5126,
      "count": 430,
      "max": [
        0.99189937114715576,
        0.5785146951675415,
        0.96951758861541748,
        1
      ],
      "min": [
        -0.98382937908172607,
        -0.43679815530776978,
        -0.96951764822006226,
        -1
      ],
      "type": "VEC4"
    },
    {
      "bufferView": 1,
      "componentType": 5126,
      "count": 430,
      "max": [
        0.96402406692504883,
        0.91843128204345703
      ],
      "min": [
        -0.99114561080932617,
        0.23717166483402252
      ],
      "type": "VEC2"
    },
    {
      "bufferView": 0,
      "componentType": 5125,
      "count": 1800,
      "max": [
        429
      ],
      "min": [
        0
      ],
      "type": "SCALAR"
    },
    {
      "bufferView": 2,
      "byteOffset": 10320,
      "componentType": 5126,
      "count": 1826,
      "max": [
        0.69730758666992188,
        0.40578293800354004,
        1.3762004375457764
      ],
      "min": [
        -2.0394504070281982,
        -0.022261142730712891,
        -1.3762004375457764
      ],
      "type": "VEC3"
    },
    {
      "bufferView": 2,
      "byteOffset": 32232,
      "componentType": 5126,
      "count": 1826,
      "max": [
        0.78723001480102539,
        0.99909794330596924,
        0.99827980995178223
      ],
      "min": [
        -0.79127931594848633,
        -0.99892103672027588,
        -0.998279869556427
      ],
      "type": "VEC3"
    },
    {
      "bufferView": 3,
      "byteOffset": 6880,
      "componentType": 5126,
      "count": 1826,
      "max": [
        0.99999135732650757,
        0.62797731161117554,
        0.48223790526390076,
        1
      ],
      "min": [
        0.5742148756980896,
        -0.79776543378829956,
        -0.48223784565925598,
        -1
      ],
      "type": "VEC4"
    },
    {
      "bufferView": 1,
      "byteOffset": 3440,
      "componentType": 5126,
      "count": 1826,
      "max": [
        0.93144869804382324,
        0.98531436920166016
      ],
      "min": [
        -0.98568588495254517,
        0.93901753425598145
      ],
      "type": "VEC2"
    },
    {
      "bufferView": 0,
      "byteOffset": 7200,
      "componentType": 5125,
      "count": 9840,
      "max": [
        1825
      ],
      "min": [
        0
      ],
      "type": "SCALAR"
    },
    {
      "bufferView": 2,
      "byteOffset": 54144,
      "componentType": 5126,
      "count": 367,
      "max": [
        1.2005127668380737,
        0.67024052143096924,
        1.1392867565155029
      ],
      "min": [
        -2.6648907661437988,
        -0.32609957456588745,
        -1.1392867565155029
      ],
      "type": "VEC3"
    },
    {
      "bufferView": 2,
      "byteOffset": 58548,
      "componentType": 5126,
      "count": 367,
      "max": [
        1,
        1,
        1
      ],
      "min": [
        -1,
        -0.80901730060577393,
        -1
      ],
      "type": "VEC3"
    },
    {
      "bufferView": 3,
      "byteOffset": 36096,
      "componentType": 5126,
      "count": 367,
      "max": [
        1,
        1,
        0.98687028884887695,
        1
      ],
      "min": [
        -0.99860328435897827,
        -1,
        -0.25858041644096375,
        -1
      ],
      "type": "VEC4"
    },
    {
      "bufferView": 1,
      "byteOffset": 18048,
      "componentType": 5126,
      "count": 367,
      "max": [
        0.96274614334106445,
        0.92884349822998047
      ],
      "min": [
        -0.56446313858032227,
        0.39132598042488098
      ],
      "type": "VEC2"
    },
    {
      "bufferView": 0,
      "byteOffset": 46560,
      "componentType": 5125,
      "count": 1032,
      "max": [
        366
      ],
      "min": [
        0
      ],
      "type": "SCALAR"
    },
    {
      "bufferView": 2,
      "byteOffset": 62952,
      "componentType": 5126,
      "count": 48,
      "max": [
        -0.11865655332803726,
        0.30704304575920105,
        0.74708032608032227
      ],
      "min": [
        -1.6891242265701294,
        0.10985547304153442,
        -0.74708032608032227
      ],
      "type": "VEC3"
    },
    {
      "bufferView": 2,
      "byteOffset": 63528,
      "componentType": 5126,
      "count": 48,
      "max": [
        0.99955123662948608,
        0.99955129623413086,
        0.090938776731491089
      ],
      "min": [
        -0.99955129623413086,
        -0.99955129623413086,
        -0.090938769280910492
      ],
      "type": "VEC3"
    },
    {
      "bufferView": 3,
      "byteOffset": 41968,
      "componentType": 5126,
      "count": 48,
      "max": [
        0.21508949995040894,
        0.99955129623413086,
        1,
        1
      ],
      "min": [
        -0.00044960359809920192,
        -0.040868170559406281,
        -1,
        1
      ],
      "type": "VEC4"
    },
    {
      "bufferView": 1,
      "byteOffset": 20984,
      "componentType": 5126,
      "count": 48,
      "max": [
        0.90685832500457764,
        0.92434734106063843
      ],
      "min": [
        0.0082950890064239502,
        0.40965953469276428
      ],
      "type": "VEC2"
    },
    {
      "bufferView": 0,
      "byteOffset": 50688,
      "componentType": 5125,
      "count": 96,
      "max": [
        47
      ],
      "min": [
        0
      ],
      "type": "SCALAR"
    },
    {
      "bufferView": 2,
      "byteOffset": 64104,
      "componentType": 5126,
      "count": 652,
      "max": [
        1.2000000476837158,
        0.64976662397384644,
        1.2872834205627441
      ],
      "min": [
        -2.7494766712188721,
        -0.29643598198890686,
        -1.2872834205627441
      ],
      "type": "VEC3"
    },
    {
      "bufferView": 2,
      "byteOffset": 71928,
      "componentType": 5126,
      "count": 652,
      "max": [
        1,
        0.99989879131317139,
        0.99734342098236084
      ],
      "min": [
        -1,
        -0.9998931884765625,
        -0.99734342098236084
      ],
      "type": "VEC3"
    },
    {
      "bufferView": 3,
      "byteOffset": 42736,
      "componentType": 5126,
      "count": 652,
      "max": [
        0.99956202507019043,
        0.26318630576133728,
        1,
        1
      ],
      "min": [
        -0.99957209825515747,
        -0.26220259070396423,
        -0.99370509386062622,
        1
      ],
      "type": "VEC4"
    },
    {
      "bufferView": 1,
      "byteOffset": 21368,
      "componentType": 5126,
      "count": 652,
      "max": [
        0.99609375,
        0.22144514322280884
      ],
      "min": [
        0.00390625,
        0.010379701852798462
      ],
      "type": "VEC2"
    },
    {
      "bufferView": 0,
      "byteOffset": 51072,
      "componentType": 5125,
      "count": 3606,
      "max": [
        651
      ],
      "min": [
        0
      ],
      "type": "SCALAR"
    },
    {
      "bufferView": 2,
      "byteOffset": 79752,
      "componentType": 5126,
      "count": 100,
      "max": [
        0.88023203611373901,
        0.1576235294342041,
        0.81895589828491211
      ],
      "min": [
        -2.4510347843170166,
        -0.28362888097763062,
        -0.81895589828491211
      ],
      "type": "VEC3"
    },
    {
      "bufferView": 2,
      "byteOffset": 80952,
      "componentType": 5126,
      "count": 100,
      "max": [
        0.26481166481971741,
        0.99999988079071045,
        1.5066316336742602e-06
      ],
      "min": [
        -0.26481455564498901,
        -0.99999988079071045,
        -2.027814616667456e-06
      ],
      "type": "VEC3"
    },
    {
      "bufferView": 3,
      "byteOffset": 53168,
      "componentType": 5126,
      "count": 100,
      "max": [
        -0.96429938077926636,
        0.26481455564498901,
        2.5146973712253384e-05,
        1
      ],
      "min": [
        -0.99999994039535522,
        -0.015726281329989433,
        -5.861747467861278e-06,
        1
      ],
      "type": "VEC4"
    },
    {
      "bufferView": 1,
      "byteOffset": 26584,
      "componentType": 5126,
      "count": 100,
      "max": [
        0.77941900491714478,
        0.42216110229492188
      ],
      "min": [
        0.0075012445449829102,
        0.2303636223077774
      ],
      "type": "VEC2"
    },
    {
      "bufferView": 0,
      "byteOffset": 65496,
      "componentType": 5125,
      "count": 288,
      "max": [
        99
      ],
      "min": [
        0
      ],
      "type": "SCALAR"
    },
    {
      "bufferView": 2,
      "byteOffset": 82152,
      "componentType": 5126,
      "count": 3289,
      "max": [
        0.99358034133911133,
        0.8365631103515625,
        2.2372503280639648
      ],
      "min": [
        -2.6580667495727539,
        -0.078239813446998596,
        -2.2372503280639648
      ],
      "type": "VEC3"
    },
    {
      "bufferView": 2,
      "byteOffset": 121620,
      "componentType": 5126,
      "count": 3289,
      "max": [
        0.99981856346130371,
        1,
        0.99999785423278809
      ],
      "min": [
        -0.99931782484054565,
        -1,
        -0.99999785423278809
      ],
      "type": "VEC3"
    },
    {
      "bufferView": 3,
      "byteOffset": 54768,
      "componentType": 5126,
      "count": 3289,
      "max": [
        0.99905353784561157,
        0.99983102083206177,
        0.99977076053619385,
        1
      ],
      "min": [
        -0.99800443649291992,
        -0.99991011619567871,
        -0.99994099140167236,
        -1
      ],
      "type": "VEC4"
    },
    {
      "bufferView": 1,
      "byteOffset": 27384,
      "componentType": 5126,
      "count": 3289,
      "max": [
        0.9692426323890686,
        0.93017226457595825
      ],
      "min": [
        -0.9406510591506958,
        0.36757367849349976
      ],
      "type": "VEC2"
    },
    {
      "bufferView": 0,
      "byteOffset": 66648,
      "componentType": 5125,
      "count": 11106,
      "max": [
        3288
      ],
      "min": [
        0
      ],
      "type": "SCALAR"
    }
  ],
  "asset": {
    "extras": {
      "author": "Marousiya (https://sketchfab.com/Marousiya)",
      "license": "CC-BY-4.0 (http://creativecommons.org/licenses/by/4.0/)",
      "source": "https://sketchfab.com/3d-models/boat-6ff7d4fd505f4aaab12d5f556b5b8f40",
      "title": "Boat"
    },
    "generator": "Sketchfab-9.7.0",
    "version": "2.0"
  },
  "bufferViews": [
    {
      "buffer": 0,
      "byteLength": 111072,
      "byteOffset": 0,
      "name": "floatBufferViews",
      "target": 34963
    },
    {
      "buffer": 0,
      "byteLength": 53696,
      "byteOffset": 111072,
      "byteStride": 8,
      "name": "floatBufferViews",
      "target": 34962
    },
    {
      "buffer": 0,
      "byteLength": 161088,
      "byteOffset": 164768,
      "byteStride": 12,
      "name": "floatBufferViews",
      "target": 34962
    },
    {
      "buffer": 0,
      "byteLength": 107392,
      "byteOffset": 325856,
      "byteStride": 16,
      "name": "floatBufferViews",
      "target": 34962
    }
  ],
  "buffers": [
    {
      "byteLength": 433248,
      "uri": "scene.bin"
    }
  ],
  "images": [
    {
      "uri": "textures/lambert1_metallicRoughness.png"
    },
    {
      "uri": "textures/lambert1_normal.png"
    }
  ],
  "materials": [
    {
      "doubleSided": true,
      "emissiveFactor": [
        0,
        0,
        0
      ],
      "name": "lambert1",
      "normalTexture": {
        "index": 1,
        "scale": 1,
        "texCoord": 0
      },
      "occlusionTexture": {
        "index": 0,
        "strength": 1,
        "texCoord": 0
      },
      "pbrMetallicRoughness": {
        "baseColorFactor": [
          0.5,
          0.5,
          0.5,
          1
        ],
        "metallicFactor": 0,
        "metallicRoughnessTexture": {
          "index": 0,
          "texCoord": 0
        },
        "roughnessFactor": 0.59999999999999998
      }
    }
  ],
  "meshes": [
    {
      "name": "Else_Low_lambert1_0",
      "primitives": [
        {
          "attributes": {
            "NORMAL": 1,
            "POSITION": 0,
            "TANGENT": 2,
            "TEXCOORD_0": 3
          },
          "indices": 4,
          "material": 0,
          "mode": 4
        }
      ]
    },
    {
      "name": "Ropes_Low_lambert1_0",
      "primitives": [
        {
          "attributes": {
            "NORMAL": 6,
            "POSITION": 5,
            "TANGENT": 7,
            "TEXCOORD_0": 8
          },
          "indices": 9,
          "material": 0,
          "mode": 4
        }
      ]
    },
    {
      "name": "Stickers_Low_lambert1_0",
      "primitives": [
        {
          "attributes": {
            "NORMAL": 11,
            "POSITION": 10,
            "TANGENT": 12,
            "TEXCOORD_0": 13
          },
          "indices": 14,
          "material": 0,
          "mode": 4
        }
      ]
    },
    {
      "name": "WoodenSeat_Low_lambert1_0",
      "primitives": [
        {
          "attributes": {
            "NORMAL": 16,
            "POSITION": 15,
            "TANGENT": 17,
            "TEXCOORD_0": 18
          },
          "indices": 19,
          "material": 0,
          "mode": 4
        }
      ]
    },
    {
      "name": "Base_Low_lambert1_0",
      "primitives": [
        {
          "attributes": {
            "NORMAL": 21,
            "POSITION": 20,
            "TANGENT": 22,
            "TEXCOORD_0": 23
          },
          "indices": 24,
          "material": 0,
          "mode": 4
        }
      ]
    },
    {
      "name": "Floor_Low_lambert1_0",
      "primitives": [
        {
          "attributes": {
            "NORMAL": 26,
            "POSITION": 25,
            "TANGENT": 27,
            "TEXCOORD_0": 28
          },
          "indices": 29,
          "material": 0,
          "mode": 4
        }
      ]
    },
    {
      "name": "Additives_Low_lambert1_0",
      "primitives": [
        {
          "attributes": {
            "NORMAL": 31,
            "POSITION": 30,
            "TANGENT": 32,
            "TEXCOORD_0": 33
          },
          "indices": 34,
          "material": 0,
          "mode": 4
        }
      ]
    }
  ],
  "nodes": [
    {
      "children": [
        1
      ],
      "name": "RootNode (gltf orientation matrix)",
      "rotation": [
        -0.70710678118654746,
        -0,
        -0,
        0.70710678118654757
      ]
    },
    {
      "children": [
        2
      ],
      "name": "RootNode (model correction matrix)"
    },
    {
      "children": [
        3
      ],
      "matrix": [
        1,
        0,
        0,
        0,
        0,
        0,
        1,
        0,
        0,
        -1,
        0,
        0,
        0,
        0,
        0,
        1
      ],
      "name": "1e942b6d21bf4e418a33dcd3a86f67ef.fbx"
    },
    {
      "children": [
        4
      ],
      "name": "RootNode"
    },
    {
      "children": [
        5,
        7,
        9,
        11,
        13,
        15,
        17
      ],
      "name": "LowPoly_Low"
    },
    {
      "children": [
        6
      ],
      "name": "Else_Low"
    },
    {
      "mesh": 0,
      "name": "Else_Low_lambert1_0"
    },
    {
      "children": [
        8
      ],
      "name": "Ropes_Low"
    },
    {
      "mesh": 1,
      "name": "Ropes_Low_lambert1_0"
    },
    {
      "children": [
        10
      ],
      "name": "Stickers_Low"
    },
    {
      "mesh": 2,
      "name": "Stickers_Low_lambert1_0"
    },
    {
      "children": [
        12
      ],
      "name": "WoodenSeat_Low"
    },
    {
      "mesh": 3,
      "name": "WoodenSeat_Low_lambert1_0"
    },
    {
      "children": [
        14
      ],
      "name": "Base_Low"
    },
    {
      "mesh": 4,
      "name": "Base_Low_lambert1_0"
    },
    {
      "children": [
        16
      ],
      "name": "Floor_Low"
    },
    {
      "mesh": 5,
      "name": "Floor_Low_lambert1_0"
    },
    {
      "children": [
        18
      ],
      "name": "Additives_Low"
    },
    {
      "mesh": 6,
      "name": "Additives_Low_lambert1_0"
    }
  ],
  "samplers": [
    {
      "magFilter": 9729,
      "minFilter": 9987,
      "wrapS": 10497,
      "wrapT": 10497
    }
  ],
  "scene": 0,
  "scenes": [
    {
      "name": "OSG_Scene",
      "nodes": [
        0
      ]
    }
  ],
  "textures": [
    {
      "sampler": 0,
      "source": 0
    },
    {
      "sampler": 0,
      "source": 1
    }
  ]
}

